<svg width="604" height="5" viewBox="0 0 604 5" fill="none" xmlns="http://www.w3.org/2000/svg">
<g clip-path="url(#clip0_4069_115)">
<path d="M0 2.5C0 1.39543 0.895431 0.5 2 0.5H602C603.105 0.5 604 1.39543 604 2.5C604 3.60457 603.105 4.5 602 4.5H2.00001C0.895441 4.5 0 3.60457 0 2.5Z" fill="#24A0B5"/>
<path d="M0 2.5C0 1.39543 0.895431 0.5 2 0.5H230C231.105 0.5 232 1.39543 232 2.5C232 3.60457 231.105 4.5 230 4.5H2C0.895428 4.5 0 3.60457 0 2.5Z" fill="#24A0B5"/>
</g>
<defs>
<clipPath id="clip0_4069_115">
<path d="M0 2.5C0 1.39543 0.895431 0.5 2 0.5H602C603.105 0.5 604 1.39543 604 2.5C604 3.60457 603.105 4.5 602 4.5H2.00001C0.895441 4.5 0 3.60457 0 2.5Z" fill="white"/>
</clipPath>
</defs>
</svg>
